<svg width="24" height="24" viewBox="0 0 24 24" fill="none" xmlns="http://www.w3.org/2000/svg">
<path fill-rule="evenodd" clip-rule="evenodd" d="M5 17.25C5.41421 17.25 5.75 17.5858 5.75 18V20C5.75 20.1381 5.86193 20.25 6 20.25H18C18.1381 20.25 18.25 20.1381 18.25 20V18C18.25 17.5858 18.5858 17.25 19 17.25C19.4142 17.25 19.75 17.5858 19.75 18V20C19.75 20.9665 18.9665 21.75 18 21.75H6C5.0335 21.75 4.25 20.9665 4.25 20V18C4.25 17.5858 4.58579 17.25 5 17.25Z" fill="#8C0100"/>
<path d="M10.7379 4.75C10.2236 4.75 9.79447 5.14312 9.74955 5.65555C9.59591 7.40826 9.56881 9.16959 9.66838 10.9258C9.42139 10.9395 9.1745 10.9553 8.92773 10.9733L7.43822 11.0819C6.86392 11.1237 6.54288 11.7641 6.85293 12.2493C7.91497 13.9114 9.28343 15.3563 10.8854 16.5071L11.4821 16.9358C11.7916 17.1581 12.2085 17.1581 12.518 16.9358L13.1147 16.5071C14.7167 15.3563 16.0851 13.9114 17.1472 12.2493C17.4572 11.7641 17.1362 11.1237 16.5619 11.0819L15.0724 10.9733C14.8256 10.9553 14.5787 10.9395 14.3317 10.9258C14.4313 9.16959 14.4042 7.40826 14.2506 5.65554C14.2056 5.14312 13.7765 4.75 13.2622 4.75H10.7379Z" fill="#8C0100"/>
<path fill-rule="evenodd" clip-rule="evenodd" d="M5 16.25C5.41421 16.25 5.75 16.5858 5.75 17V19C5.75 19.1381 5.86193 19.25 6 19.25H18C18.1381 19.25 18.25 19.1381 18.25 19V17C18.25 16.5858 18.5858 16.25 19 16.25C19.4142 16.25 19.75 16.5858 19.75 17V19C19.75 19.9665 18.9665 20.75 18 20.75H6C5.0335 20.75 4.25 19.9665 4.25 19V17C4.25 16.5858 4.58579 16.25 5 16.25Z" fill="#FF0100"/>
<path d="M10.7379 3.75C10.2236 3.75 9.79447 4.14312 9.74955 4.65555C9.59591 6.40826 9.56881 8.16959 9.66838 9.92584C9.42139 9.93949 9.1745 9.95531 8.92773 9.9733L7.43822 10.0819C6.86392 10.1237 6.54288 10.7641 6.85293 11.2493C7.91497 12.9114 9.28343 14.3563 10.8854 15.5071L11.4821 15.9358C11.7916 16.1581 12.2085 16.1581 12.518 15.9358L13.1147 15.5071C14.7167 14.3563 16.0851 12.9114 17.1472 11.2493C17.4572 10.7641 17.1362 10.1237 16.5619 10.0819L15.0724 9.9733C14.8256 9.95531 14.5787 9.93949 14.3317 9.92584C14.4313 8.16959 14.4042 6.40826 14.2506 4.65554C14.2056 4.14312 13.7765 3.75 13.2622 3.75H10.7379Z" fill="#FF0100"/>
</svg>
