<svg width="24" height="24" viewBox="0 0 24 24" fill="none" xmlns="http://www.w3.org/2000/svg">
<path d="M14.6031 4.76042C13.0625 4.58507 11.507 4.58507 9.96642 4.76042L8.3711 4.942C8.13512 4.96886 7.95059 5.15802 7.9296 5.3946L7.80697 6.77637C7.6008 9.0996 7.6008 11.4365 7.80697 13.7598L7.9296 15.1415C7.9525 15.3995 8.16863 15.5973 8.42764 15.5973H10.4991V22.9998C10.4991 23.2122 10.6333 23.4014 10.8338 23.4717C11.0342 23.5419 11.2572 23.4778 11.3898 23.3118L11.7804 22.8226C14.1099 19.9062 15.9647 16.6405 17.2767 13.1462L17.4672 12.6389C17.5248 12.4854 17.5035 12.3133 17.4101 12.1785C17.3167 12.0436 17.1631 11.9632 16.9991 11.9632H14.286L16.6115 5.61068C16.6642 5.4667 16.6479 5.3065 16.5673 5.17606C16.4868 5.04561 16.3508 4.95934 16.1985 4.942L14.6031 4.76042Z" fill="#8C0100"/>
<path d="M14.6041 2.76067C13.0635 2.58531 11.508 2.58531 9.9674 2.76067L8.37207 2.94225C8.13609 2.96911 7.95157 3.15827 7.93058 3.39484L7.80795 4.77662C7.60178 7.09985 7.60178 9.43677 7.80795 11.76L7.93058 13.1418C7.95347 13.3998 8.16961 13.5976 8.42862 13.5976H10.5V21C10.5 21.2124 10.6343 21.4017 10.8347 21.4719C11.0352 21.5421 11.2582 21.478 11.3907 21.3121L11.7814 20.8229C14.1108 17.9064 15.9657 14.6408 17.2777 11.1464L17.4681 10.6392C17.5258 10.4856 17.5045 10.3135 17.4111 10.1787C17.3177 10.0439 17.1641 9.96343 17 9.96343H14.287L16.6124 3.61092C16.6651 3.46694 16.6489 3.30675 16.5683 3.1763C16.4877 3.04586 16.3518 2.95959 16.1995 2.94225L14.6041 2.76067Z" fill="#FF0100"/>
</svg>
