<svg width="184" height="24" viewBox="0 0 184 24" fill="none" xmlns="http://www.w3.org/2000/svg">
<path d="M12.746 1.46397L15.856 7.76397L22.81 8.77597C22.9636 8.79812 23.1079 8.86283 23.2266 8.96279C23.3453 9.06275 23.4337 9.19395 23.4817 9.34154C23.5296 9.48912 23.5353 9.6472 23.4981 9.79785C23.4609 9.94851 23.3822 10.0857 23.271 10.194L18.238 15.094L19.426 22.02C19.4522 22.1729 19.4351 22.3302 19.3766 22.474C19.3181 22.6177 19.2205 22.7423 19.095 22.8335C18.9694 22.9247 18.8208 22.979 18.666 22.9902C18.5112 23.0015 18.3564 22.9692 18.219 22.897L12 19.632L5.77997 22.9C5.64245 22.9718 5.48759 23.0039 5.33285 22.9924C5.1781 22.981 5.02963 22.9266 4.90415 22.8353C4.77867 22.744 4.68118 22.6195 4.62267 22.4758C4.56415 22.3321 4.54694 22.1749 4.57297 22.022L5.76097 15.1L0.727965 10.2C0.616754 10.0917 0.538074 9.95451 0.500838 9.80385C0.463602 9.6532 0.469297 9.49512 0.517278 9.34754C0.565259 9.19995 0.653609 9.06875 0.772321 8.96879C0.891033 8.86883 1.03536 8.80412 1.18897 8.78197L8.14296 7.76497L11.253 1.46497C11.3218 1.3258 11.4281 1.20862 11.5599 1.12665C11.6918 1.04469 11.8439 1.0012 11.9992 1.0011C12.1544 1.00099 12.3066 1.04428 12.4385 1.12606C12.5705 1.20785 12.677 1.32489 12.746 1.46397Z" fill="#FF0100"/>
<path d="M52.746 1.46397L55.856 7.76397L62.81 8.77597C62.9636 8.79812 63.1079 8.86283 63.2266 8.96279C63.3453 9.06275 63.4337 9.19395 63.4817 9.34154C63.5296 9.48912 63.5353 9.6472 63.4981 9.79785C63.4609 9.94851 63.3822 10.0857 63.271 10.194L58.238 15.094L59.426 22.02C59.4522 22.1729 59.4351 22.3302 59.3766 22.474C59.3181 22.6177 59.2205 22.7423 59.095 22.8335C58.9694 22.9247 58.8208 22.979 58.666 22.9902C58.5112 23.0015 58.3564 22.9692 58.219 22.897L52 19.632L45.78 22.9C45.6424 22.9718 45.4876 23.0039 45.3328 22.9924C45.1781 22.981 45.0296 22.9266 44.9041 22.8353C44.7787 22.744 44.6812 22.6195 44.6227 22.4758C44.5642 22.3321 44.5469 22.1749 44.573 22.022L45.761 15.1L40.728 10.2C40.6168 10.0917 40.5381 9.95451 40.5008 9.80385C40.4636 9.6532 40.4693 9.49512 40.5173 9.34754C40.5653 9.19995 40.6536 9.06875 40.7723 8.96879C40.891 8.86883 41.0354 8.80412 41.189 8.78197L48.143 7.76497L51.253 1.46497C51.3218 1.3258 51.4281 1.20862 51.5599 1.12665C51.6918 1.04469 51.8439 1.0012 51.9992 1.0011C52.1544 1.00099 52.3066 1.04428 52.4385 1.12606C52.5705 1.20785 52.677 1.32489 52.746 1.46397Z" fill="#FF0100"/>
<path d="M92.746 1.46397L95.856 7.76397L102.81 8.77597C102.964 8.79812 103.108 8.86283 103.227 8.96279C103.345 9.06275 103.434 9.19395 103.482 9.34154C103.53 9.48912 103.535 9.6472 103.498 9.79785C103.461 9.94851 103.382 10.0857 103.271 10.194L98.238 15.094L99.426 22.02C99.4522 22.1729 99.4351 22.3302 99.3766 22.474C99.3181 22.6177 99.2205 22.7423 99.095 22.8335C98.9694 22.9247 98.8208 22.979 98.666 22.9902C98.5112 23.0015 98.3564 22.9692 98.219 22.897L92 19.632L85.78 22.9C85.6424 22.9718 85.4876 23.0039 85.3328 22.9924C85.1781 22.981 85.0296 22.9266 84.9041 22.8353C84.7787 22.744 84.6812 22.6195 84.6227 22.4758C84.5642 22.3321 84.5469 22.1749 84.573 22.022L85.761 15.1L80.728 10.2C80.6168 10.0917 80.5381 9.95451 80.5008 9.80385C80.4636 9.6532 80.4693 9.49512 80.5173 9.34754C80.5653 9.19995 80.6536 9.06875 80.7723 8.96879C80.891 8.86883 81.0354 8.80412 81.189 8.78197L88.143 7.76497L91.253 1.46497C91.3218 1.3258 91.4281 1.20862 91.5599 1.12665C91.6918 1.04469 91.8439 1.0012 91.9992 1.0011C92.1544 1.00099 92.3066 1.04428 92.4385 1.12606C92.5705 1.20785 92.677 1.32489 92.746 1.46397Z" fill="#FF0100"/>
<path d="M132.746 1.46397L135.856 7.76397L142.81 8.77597C142.964 8.79812 143.108 8.86283 143.227 8.96279C143.345 9.06275 143.434 9.19395 143.482 9.34154C143.53 9.48912 143.535 9.6472 143.498 9.79785C143.461 9.94851 143.382 10.0857 143.271 10.194L138.238 15.094L139.426 22.02C139.452 22.1729 139.435 22.3302 139.377 22.474C139.318 22.6177 139.221 22.7423 139.095 22.8335C138.969 22.9247 138.821 22.979 138.666 22.9902C138.511 23.0015 138.356 22.9692 138.219 22.897L132 19.632L125.78 22.9C125.642 22.9718 125.488 23.0039 125.333 22.9924C125.178 22.981 125.03 22.9266 124.904 22.8353C124.779 22.744 124.681 22.6195 124.623 22.4758C124.564 22.3321 124.547 22.1749 124.573 22.022L125.761 15.1L120.728 10.2C120.617 10.0917 120.538 9.95451 120.501 9.80385C120.464 9.6532 120.469 9.49512 120.517 9.34754C120.565 9.19995 120.654 9.06875 120.772 8.96879C120.891 8.86883 121.035 8.80412 121.189 8.78197L128.143 7.76497L131.253 1.46497C131.322 1.3258 131.428 1.20862 131.56 1.12665C131.692 1.04469 131.844 1.0012 131.999 1.0011C132.154 1.00099 132.307 1.04428 132.439 1.12606C132.571 1.20785 132.677 1.32489 132.746 1.46397Z" fill="#FF0100"/>
<path d="M172.746 1.46397L175.856 7.76397L182.81 8.77597C182.964 8.79812 183.108 8.86283 183.227 8.96279C183.345 9.06275 183.434 9.19395 183.482 9.34154C183.53 9.48912 183.535 9.6472 183.498 9.79785C183.461 9.94851 183.382 10.0857 183.271 10.194L178.238 15.094L179.426 22.02C179.452 22.1729 179.435 22.3302 179.377 22.474C179.318 22.6177 179.221 22.7423 179.095 22.8335C178.969 22.9247 178.821 22.979 178.666 22.9902C178.511 23.0015 178.356 22.9692 178.219 22.897L172 19.632L165.78 22.9C165.642 22.9718 165.488 23.0039 165.333 22.9924C165.178 22.981 165.03 22.9266 164.904 22.8353C164.779 22.744 164.681 22.6195 164.623 22.4758C164.564 22.3321 164.547 22.1749 164.573 22.022L165.761 15.1L160.728 10.2C160.617 10.0917 160.538 9.95451 160.501 9.80385C160.464 9.6532 160.469 9.49512 160.517 9.34754C160.565 9.19995 160.654 9.06875 160.772 8.96879C160.891 8.86883 161.035 8.80412 161.189 8.78197L168.143 7.76497L171.253 1.46497C171.322 1.3258 171.428 1.20862 171.56 1.12665C171.692 1.04469 171.844 1.0012 171.999 1.0011C172.154 1.00099 172.307 1.04428 172.439 1.12606C172.571 1.20785 172.677 1.32489 172.746 1.46397Z" fill="#FF0100"/>
</svg>
